<?xml version="1.0" encoding="UTF-8" standalone="no"?>
<!DOCTYPE svg PUBLIC "-//W3C//DTD SVG 1.1//EN" "http://www.w3.org/Graphics/SVG/1.1/DTD/svg11.dtd">
<svg version="1.1" xmlns="http://www.w3.org/2000/svg" xmlns:xlink="http://www.w3.org/1999/xlink" preserveAspectRatio="xMidYMid meet" viewBox="0 0 640 640" width="100" height="100"><defs><path d="M636.67 320.35C636.67 497.16 494.78 640.71 320 640.71C145.22 640.71 3.33 497.16 3.33 320.35C3.33 143.55 145.22 0 320 0C494.78 0 636.67 143.55 636.67 320.35Z" id="d1hzlK6jGv"></path><path d="M345.96 1.05L358.72 2.35L371.34 4.15L383.79 6.44L396.06 9.21L408.15 12.45L420.05 16.16L431.74 20.31L443.21 24.9L454.46 29.93L465.48 35.37L476.25 41.22L486.76 47.47L497 54.11L506.97 61.13L516.65 68.52L526.04 76.27L535.12 84.36L543.88 92.8L552.31 101.56L560.4 110.63L568.15 120.02L575.54 129.7L582.56 139.67L589.2 149.91L595.45 160.43L601.3 171.19L606.75 182.21L611.77 193.46L616.36 204.93L620.52 216.62L624.22 228.52L627.46 240.61L630.23 252.89L632.52 265.33L634.32 277.95L635.62 290.72L636.41 303.63L636.67 316.67L636.41 329.72L635.62 342.63L634.32 355.4L632.52 368.01L630.23 380.46L627.46 392.73L624.22 404.82L620.52 416.72L616.36 428.41L611.77 439.89L606.75 451.14L605.18 454.32L437.82 202.52L362.37 316.04L242.66 135.93L45.65 432.35L33.22 451.06L28.23 439.89L23.64 428.41L19.48 416.72L15.78 404.82L12.54 392.73L9.77 380.46L7.48 368.01L5.68 355.4L4.38 342.63L3.59 329.72L3.33 316.67L3.59 303.63L4.38 290.72L5.68 277.95L7.48 265.33L9.77 252.89L12.54 240.61L15.78 228.52L19.48 216.62L23.64 204.93L28.23 193.46L33.25 182.21L38.7 171.19L44.55 160.43L50.8 149.91L57.44 139.67L64.46 129.7L71.85 120.02L79.6 110.63L87.69 101.56L96.12 92.8L104.88 84.36L113.96 76.27L123.35 68.52L133.03 61.13L143 54.11L153.24 47.47L163.75 41.22L174.52 35.37L185.54 29.93L196.79 24.9L208.26 20.31L219.95 16.16L231.85 12.45L243.94 9.21L256.21 6.44L268.66 4.15L281.28 2.35L294.04 1.05L306.96 0.26L320 0L333.04 0.26L345.96 1.05Z" id="aqAFDJRUW"></path></defs><g><g><g><g><use xlink:href="#d1hzlK6jGv" opacity="1" fill="#aaaaaa" fill-opacity="1"></use></g><g><use xlink:href="#aqAFDJRUW" opacity="1" fill="#ffce00" fill-opacity="1"></use></g></g></g></g></svg>