<?xml version="1.0" encoding="UTF-8" standalone="no"?>
<!DOCTYPE svg PUBLIC "-//W3C//DTD SVG 1.1//EN" "http://www.w3.org/Graphics/SVG/1.1/DTD/svg11.dtd">
<svg version="1.1" xmlns="http://www.w3.org/2000/svg" xmlns:xlink="http://www.w3.org/1999/xlink" preserveAspectRatio="xMidYMid meet" viewBox="0 0 640 640" width="400" height="400"><defs><path d="M322.22 227.42C322.22 278.19 281.48 319.41 231.29 319.41C181.11 319.41 140.36 278.19 140.36 227.42C140.36 176.65 181.11 135.43 231.29 135.43C281.48 135.43 322.22 176.65 322.22 227.42Z" id="b2adIG9juN"></path><path d="M238.75 135.73L242.41 136.1L246.04 136.62L249.61 137.28L253.13 138.07L256.61 139L260.02 140.07L263.38 141.26L266.67 142.58L269.9 144.02L273.07 145.58L276.16 147.26L279.18 149.06L282.12 150.97L284.98 152.98L287.76 155.1L290.46 157.33L293.06 159.65L295.58 162.07L298 164.59L300.32 167.2L302.55 169.89L304.67 172.67L306.69 175.53L308.59 178.48L310.39 181.49L312.07 184.59L313.63 187.75L315.07 190.98L316.39 194.27L317.59 197.63L318.65 201.05L319.58 204.52L320.38 208.04L321.03 211.62L321.55 215.24L321.92 218.91L322.15 222.61L322.22 226.36L322.15 230.11L321.92 233.81L321.55 237.48L321.03 241.1L320.38 244.68L319.58 248.2L318.65 251.67L317.59 255.09L316.39 258.44L315.07 261.74L313.63 264.97L313.18 265.88L265.13 193.58L243.46 226.18L209.09 174.46L152.52 259.58L148.95 264.95L147.51 261.74L146.19 258.44L145 255.09L143.94 251.67L143.01 248.2L142.21 244.68L141.55 241.1L141.04 237.48L140.66 233.81L140.44 230.11L140.36 226.36L140.44 222.61L140.66 218.91L141.04 215.24L141.55 211.62L142.21 208.04L143.01 204.52L143.94 201.05L145 197.63L146.19 194.27L147.51 190.98L148.96 187.75L150.52 184.59L152.2 181.49L153.99 178.48L155.9 175.53L157.92 172.67L160.04 169.89L162.26 167.2L164.59 164.59L167.01 162.07L169.52 159.65L172.13 157.33L174.83 155.1L177.61 152.98L180.47 150.97L183.41 149.06L186.43 147.26L189.52 145.58L192.68 144.02L195.91 142.58L199.21 141.26L202.57 140.07L205.98 139L209.45 138.07L212.98 137.28L216.55 136.62L220.17 136.1L223.84 135.73L227.55 135.5L231.29 135.43L235.04 135.5L238.75 135.73Z" id="c4ffgy5AhO"></path></defs><g><g><g><g><use xlink:href="#b2adIG9juN" opacity="1" fill="#aaaaaa" fill-opacity="1"></use></g><g><use xlink:href="#c4ffgy5AhO" opacity="1" fill="#ffce00" fill-opacity="1"></use></g></g></g></g></svg>