<?xml version="1.0" encoding="UTF-8" standalone="no"?>
<!DOCTYPE svg PUBLIC "-//W3C//DTD SVG 1.1//EN" "http://www.w3.org/Graphics/SVG/1.1/DTD/svg11.dtd">
<svg version="1.1" xmlns="http://www.w3.org/2000/svg" xmlns:xlink="http://www.w3.org/1999/xlink" preserveAspectRatio="xMidYMid meet" viewBox="0 0 640 640" width="400" height="400"><defs><path d="M320 153.52C320 193.03 287.93 225.1 248.42 225.1C208.92 225.1 176.84 193.03 176.84 153.52C176.84 114.02 208.92 81.95 248.42 81.95C287.93 81.95 320 114.02 320 153.52Z" id="g2voQXCvxo"></path><path d="M254.29 82.18L257.17 82.48L260.03 82.88L262.84 83.4L265.61 84.03L268.35 84.76L271.04 85.6L273.68 86.54L276.27 87.57L278.81 88.71L281.3 89.94L283.74 91.26L286.11 92.68L288.43 94.18L290.68 95.76L292.87 97.43L294.99 99.18L297.04 101.01L299.03 102.92L300.93 104.9L302.76 106.95L304.51 109.07L306.18 111.26L307.77 113.52L309.27 115.83L310.68 118.21L312.01 120.64L313.24 123.13L314.37 125.67L315.41 128.27L316.35 130.91L317.19 133.6L317.92 136.33L318.54 139.11L319.06 141.92L319.47 144.77L319.76 147.66L319.94 150.58L320 153.52L319.94 156.47L319.76 159.39L319.47 162.28L319.06 165.13L318.54 167.94L317.92 170.72L317.19 173.45L316.35 176.14L316.11 176.82L314.04 173.59L280.96 122.07L265 146.93L232.63 96.52L199.55 148.04L180.86 177.16L180.49 176.14L179.66 173.45L178.92 170.72L178.3 167.94L177.78 165.13L177.37 162.28L177.08 159.39L176.9 156.47L176.84 153.52L176.9 150.58L177.08 147.66L177.37 144.77L177.78 141.92L178.3 139.11L178.92 136.33L179.66 133.6L180.49 130.91L181.43 128.27L182.47 125.67L183.61 123.13L184.84 120.64L186.16 118.21L187.57 115.83L189.07 113.52L190.66 111.26L192.33 109.07L194.08 106.95L195.91 104.9L197.82 102.92L199.8 101.01L201.85 99.18L203.97 97.43L206.16 95.76L208.41 94.18L210.73 92.68L213.1 91.26L215.54 89.94L218.03 88.71L220.57 87.57L223.16 86.54L225.81 85.6L228.5 84.76L231.23 84.03L234 83.4L236.82 82.88L239.67 82.48L242.55 82.18L245.47 82.01L248.42 81.95L251.37 82.01L254.29 82.18Z" id="a5QXTKKwE"></path><path d="" id="a2724qAvd0"></path></defs><g><g><g><use xlink:href="#g2voQXCvxo" opacity="1" fill="#aaaaaa" fill-opacity="1"></use></g><g><use xlink:href="#a5QXTKKwE" opacity="1" fill="#9bc9aa" fill-opacity="1"></use></g><g><g><use xlink:href="#a2724qAvd0" opacity="1" fill-opacity="0" stroke="#000000" stroke-width="1" stroke-opacity="1"></use></g></g></g></g></svg>